<?xml version="1.0" encoding="UTF-8"?>
<svg id="Layer_1" data-name="Layer 1" xmlns="http://www.w3.org/2000/svg" viewBox="0 0 158.7 33.81">
  <defs>
    <style>
      .cls-1 {
        fill: #fff;
      }

      .cls-2 {
        fill: #ffc800;
      }
    </style>
  </defs>
  <g>
    <path d="M0,28.46V7.78h2.58v20.68H0ZM1.29,28.46v-2.28h6.13c1.55,0,2.72-.31,3.53-.92.81-.62,1.21-1.52,1.21-2.7v-.03c0-.8-.19-1.47-.56-2.01-.37-.53-.93-.94-1.67-1.2-.74-.27-1.66-.4-2.76-.4H1.29v-2.22h5.16c1.53,0,2.7-.3,3.5-.89.81-.59,1.21-1.45,1.21-2.56v-.03c0-1.02-.34-1.8-1.02-2.34-.68-.54-1.64-.81-2.89-.81H1.29v-2.28h6.55c1.18,0,2.22.21,3.11.64s1.58,1.03,2.08,1.81c.5.77.75,1.68.75,2.71v.03c0,.72-.16,1.4-.49,2.05-.32.65-.77,1.2-1.33,1.64-.56.44-1.2.72-1.92.82v.06c.99.11,1.85.4,2.56.86s1.27,1.05,1.65,1.77c.38.72.57,1.54.57,2.46v.03c0,1.21-.28,2.25-.84,3.12-.56.86-1.36,1.53-2.4,1.99-1.04.46-2.3.69-3.77.69H1.29Z"/>
    <path d="M17.35,28.46v-14.9h2.49v2.52h.06c.25-.86.68-1.54,1.29-2.05.61-.51,1.34-.76,2.18-.76.22,0,.42.01.59.04.18.02.31.05.41.06v2.42c-.1-.04-.27-.07-.51-.1s-.52-.04-.82-.04c-.64,0-1.2.14-1.68.43-.48.29-.85.7-1.12,1.24-.26.54-.39,1.19-.39,1.94v9.2h-2.49Z"/>
    <path d="M30.46,28.74c-.98,0-1.85-.19-2.59-.56s-1.33-.9-1.74-1.58c-.42-.68-.62-1.47-.62-2.36v-.03c0-.85.21-1.59.64-2.21.42-.62,1.04-1.11,1.85-1.48.81-.36,1.78-.58,2.92-.64l5.52-.32v1.93l-5.23.32c-.99.06-1.76.3-2.31.72-.55.42-.82.98-.82,1.68v.03c0,.72.27,1.28.81,1.71.54.42,1.26.63,2.16.63.78,0,1.49-.16,2.11-.49.63-.33,1.12-.78,1.49-1.35.37-.57.55-1.22.55-1.93v-4.4c0-.91-.28-1.62-.85-2.14-.57-.52-1.37-.78-2.41-.78-.96,0-1.73.21-2.31.62s-.95.96-1.1,1.63l-.03.13h-2.41v-.16c.09-.82.37-1.57.85-2.24.48-.67,1.15-1.2,2-1.6.85-.4,1.86-.59,3.02-.59s2.19.2,3.04.6c.85.4,1.52.97,1.98,1.7.47.73.7,1.59.7,2.59v10.3h-2.49v-2.42h-.06c-.29.54-.67,1.02-1.15,1.43-.48.41-1.02.72-1.61.95-.6.22-1.23.34-1.9.34Z"/>
    <path d="M42.24,11.03c-.43,0-.8-.15-1.1-.46-.31-.31-.46-.67-.46-1.1s.15-.81.46-1.11c.31-.3.67-.45,1.1-.45s.81.15,1.11.45.45.67.45,1.11-.15.8-.45,1.1c-.3.31-.67.46-1.11.46ZM40.99,28.46v-14.9h2.49v14.9h-2.49Z"/>
    <path d="M46.88,28.46v-14.9h2.49v2.12h.06c.4-.7.98-1.27,1.75-1.73.76-.45,1.71-.68,2.84-.68,1.63,0,2.9.49,3.8,1.48s1.35,2.33,1.35,4.03v9.67h-2.49v-9.23c0-1.21-.28-2.14-.85-2.79-.57-.64-1.43-.97-2.57-.97-.78,0-1.47.17-2.05.52-.58.35-1.03.84-1.35,1.47-.32.63-.48,1.37-.48,2.22v8.77h-2.49Z"/>
    <path d="M62.73,28.46V7.78h2.58v20.68h-2.58ZM64.02,28.46v-2.28h6.13c1.55,0,2.72-.31,3.53-.92.81-.62,1.21-1.52,1.21-2.7v-.03c0-.8-.19-1.47-.56-2.01-.37-.53-.93-.94-1.67-1.2-.74-.27-1.66-.4-2.76-.4h-5.89v-2.22h5.16c1.53,0,2.7-.3,3.5-.89.81-.59,1.21-1.45,1.21-2.56v-.03c0-1.02-.34-1.8-1.02-2.34-.68-.54-1.64-.81-2.89-.81h-5.96v-2.28h6.55c1.18,0,2.22.21,3.11.64s1.58,1.03,2.08,1.81c.5.77.75,1.68.75,2.71v.03c0,.72-.16,1.4-.49,2.05-.32.65-.77,1.2-1.33,1.64-.56.44-1.2.72-1.92.82v.06c.99.11,1.85.4,2.56.86s1.27,1.05,1.65,1.77c.38.72.57,1.54.57,2.46v.03c0,1.21-.28,2.25-.84,3.12-.56.86-1.36,1.53-2.4,1.99-1.04.46-2.3.69-3.77.69h-6.52Z"/>
    <path d="M86.21,28.74c-1.42,0-2.65-.32-3.68-.95-1.03-.63-1.81-1.52-2.36-2.67-.55-1.15-.82-2.51-.82-4.06h0c0-1.55.28-2.91.83-4.08.55-1.17,1.33-2.08,2.34-2.74,1-.65,2.18-.98,3.54-.98s2.52.31,3.5.94c.98.63,1.73,1.5,2.26,2.63.53,1.13.79,2.44.79,3.93v.92h-12.01v-1.95h10.77l-1.26,1.81v-.96c0-1.16-.17-2.11-.52-2.87-.35-.75-.83-1.32-1.44-1.68-.61-.37-1.31-.55-2.11-.55s-1.5.19-2.13.58-1.13.96-1.49,1.72c-.36.76-.54,1.69-.54,2.8v.96c0,1.05.18,1.95.54,2.69s.87,1.32,1.53,1.71c.66.4,1.44.59,2.34.59.63,0,1.19-.1,1.69-.29.5-.19.91-.45,1.25-.79s.57-.72.72-1.15l.04-.13h2.45l-.03.14c-.12.61-.36,1.18-.71,1.72-.35.54-.8,1.01-1.34,1.41-.54.41-1.17.72-1.86.95-.7.22-1.45.34-2.26.34Z"/>
    <path d="M99.46,28.74c-.98,0-1.85-.19-2.59-.56s-1.33-.9-1.74-1.58c-.42-.68-.62-1.47-.62-2.36v-.03c0-.85.21-1.59.64-2.21.42-.62,1.04-1.11,1.85-1.48.81-.36,1.78-.58,2.92-.64l5.52-.32v1.93l-5.23.32c-.99.06-1.76.3-2.31.72-.55.42-.82.98-.82,1.68v.03c0,.72.27,1.28.81,1.71.54.42,1.26.63,2.16.63.78,0,1.49-.16,2.11-.49.63-.33,1.12-.78,1.49-1.35.37-.57.55-1.22.55-1.93v-4.4c0-.91-.28-1.62-.85-2.14-.57-.52-1.37-.78-2.41-.78-.96,0-1.73.21-2.31.62s-.95.96-1.1,1.63l-.03.13h-2.41v-.16c.09-.82.37-1.57.85-2.24.48-.67,1.15-1.2,2-1.6.85-.4,1.86-.59,3.02-.59s2.19.2,3.04.6c.85.4,1.52.97,1.98,1.7.47.73.7,1.59.7,2.59v10.3h-2.49v-2.42h-.06c-.29.54-.67,1.02-1.15,1.43-.48.41-1.02.72-1.61.95-.6.22-1.23.34-1.9.34Z"/>
    <path d="M114.68,28.74c-1.37,0-2.39-.32-3.07-.97-.68-.65-1.02-1.69-1.02-3.11v-9.04h-2.18v-2.06h2.18v-4.03h2.58v4.03h2.84v2.06h-2.84v9.03c0,.79.17,1.33.52,1.61.34.28.85.42,1.52.42.15,0,.3,0,.44-.02.14-.01.26-.03.37-.04v2.02c-.15.02-.35.04-.59.06-.24.02-.49.04-.74.04Z"/>
    <path d="M123.97,28.74c-1.17,0-2.17-.19-3.02-.56-.85-.37-1.52-.89-2.01-1.56-.49-.67-.79-1.45-.9-2.34v-.13s2.48,0,2.48,0l.03.14c.15.75.51,1.33,1.07,1.74.56.42,1.35.62,2.36.62.68,0,1.26-.09,1.73-.27.48-.18.85-.43,1.1-.76s.39-.72.39-1.17h0c0-.55-.16-.98-.49-1.3-.32-.32-.91-.59-1.76-.8l-2.36-.57c-.94-.23-1.71-.53-2.33-.9-.62-.37-1.08-.82-1.38-1.35-.31-.53-.46-1.16-.46-1.88h0c0-.87.23-1.63.69-2.29.46-.66,1.11-1.17,1.93-1.55.83-.37,1.77-.56,2.84-.56s2.04.19,2.84.58c.81.39,1.44.91,1.91,1.58.46.66.72,1.41.78,2.24v.19s-2.36,0-2.36,0v-.1c-.11-.73-.43-1.31-.97-1.75-.54-.44-1.27-.66-2.2-.66-.6,0-1.12.09-1.56.27-.44.18-.78.44-1.01.77-.23.33-.35.71-.35,1.15h0c0,.35.08.65.24.92s.41.51.75.71.79.37,1.33.5l2.36.57c1.51.36,2.57.86,3.18,1.5.61.64.92,1.48.92,2.54h0c0,.88-.25,1.65-.75,2.32-.5.67-1.19,1.19-2.06,1.57s-1.87.57-2.97.57Z"/>
  </g>
  <g>
    <circle class="cls-2" cx="145.09" cy="13.93" r="8.12"/>
    <g>
      <path d="M153.92,9.23c-.26-.47-.56-.91-.9-1.33-1.16-1.45-2.76-2.58-4.67-3.15-.53-.16-1.06-.26-1.59-.33-.54-.06-1.08-.08-1.61-.06-2.48.13-4.82,1.23-6.49,3.03-.36.39-.69.81-.99,1.27-.49.75-.88,1.58-1.15,2.47-.46,1.53-.51,3.09-.22,4.56.1.53.25,1.04.45,1.54,1.02,2.66,3.22,4.85,6.15,5.73.03,0,.07.02.1.03.53.15,1.05.25,1.58.31,4.03.45,7.95-1.75,9.67-5.45.19-.41.35-.83.48-1.27.02-.08.04-.16.07-.24.67-2.48.29-5.01-.88-7.11ZM153.19,16.12c-.12.41-.28.8-.46,1.18-1.45,2.99-4.64,4.76-7.93,4.41l.12-.91,1.17-8.57c1.06,2.51,1.39,3.76.35,4.72-.33.3-.35.81-.05,1.13.1.11.23.19.36.23.26.08.56.02.77-.18,2.05-1.88,1.04-4.22-.35-7.45-.15-.35-.31-.71-.47-1.09-.07-.16-.19-.29-.33-.37-.14-.08-.3-.12-.47-.11-.06-.03-.13-.05-.2-.06-.19-.03-.38.02-.53.12-.2.12-.34.32-.38.57l-1.46,10.72-.13.92c-2.32-.74-4.07-2.47-4.92-4.58-.2-.5-.35-1.01-.44-1.54-.21-1.18-.16-2.43.2-3.65.21-.7.51-1.35.88-1.94.29-.46.62-.88.99-1.26,1.35-1.41,3.2-2.28,5.17-2.41.53-.04,1.07-.02,1.61.05.4.05.79.14,1.18.26,1.54.46,2.84,1.36,3.8,2.51.34.41.64.86.9,1.33.9,1.68,1.2,3.68.7,5.66-.03.11-.06.22-.09.33Z"/>
      <path d="M143.64,30.23l.82-6.02c-.53-.06-1.05-.16-1.58-.3l-.62,4.54c-.68-.39-1.52-.57-2.37-.48-1.93.19-3.37,1.66-3.21,3.26.11,1.14,1.01,2.06,2.22,2.42.49.15,1.02.2,1.58.15,1.93-.19,3.37-1.66,3.21-3.26-.01-.1-.03-.2-.05-.3Z"/>
      <path d="M158.17,17.57l-2.51-.91c-.02.06-.03.12-.05.19-.14.46-.31.9-.5,1.32l2.51.91s.03.01.05.01c.4.12.84-.09.98-.5.15-.42-.06-.88-.48-1.03Z"/>
      <path d="M156.9,7.22c.37-.25.46-.75.22-1.12-.25-.37-.75-.46-1.12-.22l-2.22,1.5c.33.42.63.87.9,1.33l2.22-1.5Z"/>
      <path d="M145.19,3.44c.53-.02,1.07,0,1.61.06l.09-2.67c.02-.44-.33-.82-.77-.83-.44-.02-.82.33-.83.77l-.09,2.67Z"/>
      <path d="M137.94,6.82l-2.1-1.64c-.35-.27-.85-.21-1.13.14s-.21.85.14,1.13l2.1,1.64c.3-.45.63-.87.99-1.27Z"/>
      <path d="M132.86,16.68c-.43.12-.67.57-.55.99.08.27.29.47.54.55.14.04.3.05.45,0l2.57-.74c-.19-.5-.34-1.02-.45-1.54l-2.57.74Z"/>
    </g>
    <circle class="cls-1" cx="142.4" cy="10.26" r="2.72"/>
  </g>
</svg>